<svg width="36" height="36" viewBox="0 0 36 36" fill="none" xmlns="http://www.w3.org/2000/svg">
<path fill-rule="evenodd" clip-rule="evenodd" d="M16.9351 0.0326258C13.6525 0.261276 10.6587 1.27422 7.96604 3.06729C6.39255 4.11509 4.71301 5.70943 3.55845 7.25129C2.01905 9.30706 0.897135 11.7944 0.390008 14.276C0.173748 15.3342 0.00231459 16.6719 0.00077153 17.313L0 17.6311L0.723309 17.6306C1.82386 17.6298 4.25445 17.5285 5.40071 17.4356C9.02624 17.1418 11.131 16.5716 12.9392 15.3934C13.4998 15.028 13.8627 14.7307 14.3505 14.2369C16.1898 12.3751 17.0763 9.82005 17.4346 5.34828C17.5177 4.31057 17.6291 1.60356 17.6293 0.614452L17.6295 0.00705735L17.3691 0.0138062C17.2259 0.0175084 17.0306 0.0259926 16.9351 0.0326258ZM18.7344 0.124063C18.6823 0.384336 18.7281 2.43563 18.826 4.2299C19.0842 8.96233 19.8639 11.7493 21.4636 13.6585C22.0603 14.3707 22.9446 15.1455 23.6281 15.5549C25.3984 16.6153 27.5045 17.1559 30.8805 17.4166C32.2718 17.524 34.5606 17.6312 35.4614 17.6312L35.9919 17.6311V17.3867C35.9919 17.0602 35.8956 16.0724 35.7992 15.4099C35.5333 13.5815 34.9617 11.7418 34.1465 10.091C33.2164 8.20743 32.184 6.76568 30.7078 5.28908C29.0773 3.65806 27.2346 2.40424 25.1127 1.482C23.2423 0.669098 21.3465 0.21199 19.0719 0.0256456L18.7592 0L18.7344 0.124063ZM0 18.8012C0 18.9742 0.117851 20.1217 0.176912 20.5235C0.627138 23.5872 1.7663 26.3444 3.57866 28.7571C4.15893 29.5295 4.53413 29.9577 5.30241 30.7243C6.71177 32.1305 8.10476 33.1426 9.83974 34.021C11.297 34.7588 13.0199 35.357 14.5606 35.6601C15.2231 35.7904 16.4788 35.9438 17.1378 35.9749L17.6685 36L17.6507 35.8879C17.6409 35.8263 17.6231 35.368 17.6111 34.8696C17.4875 29.7367 17.0728 26.9097 16.1217 24.7153C15.5265 23.3419 14.5252 22.0894 13.3016 21.1877C11.3472 19.7475 8.73854 19.0821 4.05053 18.8279C3.23761 18.7839 0.936367 18.711 0.356832 18.711C0.00844825 18.711 0 18.7131 0 18.8012ZM33.8509 18.7512C31.3913 18.8135 29.1119 19.0343 27.4472 19.3717C26.1907 19.6264 25.0009 20.0234 24.1489 20.4722C23.0088 21.0728 22.1896 21.7549 21.3543 22.7988C19.919 24.5927 19.1986 27.0403 18.8852 31.1867C18.78 32.5798 18.6821 35.4147 18.7269 35.7732L18.7548 35.9964L19.0505 35.9709C19.6376 35.9204 20.9087 35.7558 21.3188 35.6773C23.3748 35.2837 25.4557 34.4991 27.1771 33.4684C31.3084 30.9948 34.3347 26.918 35.4695 22.2975C35.6754 21.4594 35.8985 20.0416 35.9737 19.0929L36 18.7614L35.7355 18.7365C35.5901 18.7228 35.3496 18.7143 35.201 18.7177C35.0525 18.7211 34.4449 18.7362 33.8509 18.7512Z" fill="#302F2B"/>
</svg>
