<svg width="40" height="40" viewBox="0 0 40 40" fill="none" xmlns="http://www.w3.org/2000/svg">
<path d="M20 40C31.0457 40 40 31.0457 40 20C40 8.95431 31.0457 0 20 0C8.95431 0 0 8.95431 0 20C0 31.0457 8.95431 40 20 40Z" fill="#EF2F14"/>
<path d="M20.0003 37.3627C29.5895 37.3627 37.363 29.5892 37.363 20.0001C37.363 10.411 29.5895 2.63745 20.0003 2.63745C10.4112 2.63745 2.6377 10.411 2.6377 20.0001C2.6377 29.5892 10.4112 37.3627 20.0003 37.3627Z" fill="#FFBD35"/>
<path d="M19.9997 34.7252C28.1322 34.7252 34.725 28.1325 34.725 19.9999C34.725 11.8674 28.1322 5.27466 19.9997 5.27466C11.8671 5.27466 5.27441 11.8674 5.27441 19.9999C5.27441 28.1325 11.8671 34.7252 19.9997 34.7252Z" fill="white"/>
<path d="M20 32.0879C26.676 32.0879 32.0879 26.676 32.0879 20C32.0879 13.3241 26.676 7.91211 20 7.91211C13.3241 7.91211 7.91211 13.3241 7.91211 20C7.91211 26.676 13.3241 32.0879 20 32.0879Z" fill="#91CDD5"/>
<path d="M20.0004 29.4507C25.2197 29.4507 29.4509 25.2195 29.4509 20.0001C29.4509 14.7807 25.2197 10.5496 20.0004 10.5496C14.781 10.5496 10.5498 14.7807 10.5498 20.0001C10.5498 25.2195 14.781 29.4507 20.0004 29.4507Z" fill="#0A2661"/>
<path d="M20.2197 14.5054L21.404 18.1501H25.2363L22.1359 20.4027L23.3201 24.0474L20.2197 21.7949L17.1193 24.0474L18.3035 20.4027L15.2031 18.1501H19.0354L20.2197 14.5054Z" fill="white"/>
</svg>
